<?xml version="1.0" standalone="no"?>
<!DOCTYPE svg PUBLIC "-//W3C//DTD SVG 20010904//EN"
 "http://www.w3.org/TR/2001/REC-SVG-20010904/DTD/svg10.dtd">
<svg version="1.0" xmlns="http://www.w3.org/2000/svg"
 width="611.000000pt" height="224.000000pt" viewBox="0 0 611.000000 224.000000"
 preserveAspectRatio="xMidYMid meet">
<metadata>
Created by potrace 1.16, written by Peter Selinger 2001-2019
</metadata>
<g transform="translate(0.000000,224.000000) scale(0.100000,-0.100000)"
fill="#000000" stroke="none">
<path d="M3761 2080 l-42 -49 3 -119 3 -119 114 107 114 107 -64 61 c-35 34
-69 61 -75 62 -6 0 -30 -22 -53 -50z"/>
<path d="M4200 1755 l-64 -65 157 -158 c86 -87 157 -165 157 -173 0 -7 -71
-85 -157 -171 l-158 -158 68 -67 67 -68 159 159 159 159 58 -11 c81 -17 112
-15 161 9 49 24 86 79 98 144 14 79 30 89 93 55 78 -42 79 -44 38 -92 -52 -61
-64 -107 -41 -159 53 -116 290 -291 464 -343 85 -25 101 -22 101 17 0 32 -3
34 -57 51 -104 32 -248 112 -315 174 -55 51 -26 58 35 8 62 -49 174 -111 244
-135 80 -27 93 -27 93 3 0 20 -13 28 -89 60 -49 20 -120 59 -158 86 -122 88
-118 69 -29 159 44 44 101 91 128 106 48 26 65 27 131 9 14 -4 17 1 17 31 0
31 -4 38 -32 49 -53 22 -176 39 -232 32 -29 -4 -76 -18 -105 -31 l-53 -25 -38
30 c-136 108 -231 89 -270 -54 -11 -38 -27 -77 -36 -87 -20 -22 -71 -33 -112
-24 -29 6 -29 7 -19 46 19 76 5 97 -205 307 l-193 192 -65 -65z m1063 -437
c15 -8 11 -16 -35 -69 l-53 -59 -17 22 c-9 13 -18 37 -20 53 l-3 30 -27 -40
c-25 -36 -26 -41 -13 -60 24 -32 39 -65 32 -71 -7 -7 -54 44 -62 68 -9 24 17
69 65 112 37 33 45 36 78 30 20 -4 45 -11 55 -16z"/>
<path d="M3246 1568 c-122 -120 -146 -149 -152 -180 -12 -72 2 -106 79 -186
80 -82 235 -225 223 -204 -5 8 -8 66 -7 130 l2 117 -46 45 c-25 24 -45 51 -45
59 0 9 21 36 46 62 l45 46 2 126 c1 70 1 127 0 127 -1 0 -67 -64 -147 -142z"/>
<path d="M5720 1321 c0 -35 5 -43 49 -75 166 -122 210 -276 99 -344 -18 -11
-59 -28 -90 -37 -57 -16 -58 -17 -58 -52 l0 -36 52 7 c105 14 191 73 226 156
21 50 11 136 -24 200 -34 63 -137 161 -204 195 l-50 25 0 -39z"/>
<path d="M3720 790 l0 -125 49 -55 50 -55 65 65 66 65 -115 115 -115 115 0
-125z"/>
<path d="M3520 681 c0 -163 -2 -190 -16 -195 -23 -9 -157 -7 -172 3 -9 5 -12
29 -10 82 l3 74 83 3 82 3 0 40 0 41 -96 -4 c-94 -3 -96 -4 -125 -36 -27 -30
-29 -37 -29 -118 0 -144 20 -163 173 -164 120 0 155 11 175 55 8 17 12 90 12
215 l0 190 -40 0 -40 0 0 -189z"/>
<path d="M350 625 l0 -215 35 0 35 0 0 85 0 85 140 0 140 0 0 -85 0 -85 40 0
40 0 -2 213 -3 212 -37 3 -38 3 0 -90 0 -91 -140 0 -140 0 0 90 0 90 -35 0
-35 0 0 -215z"/>
<path d="M1063 829 c-101 -30 -114 -178 -20 -231 13 -8 76 -15 147 -18 l125
-5 10 -29 c8 -24 6 -31 -14 -47 -21 -17 -41 -19 -177 -19 l-154 0 0 -35 0 -35
176 0 176 0 33 33 c61 61 53 154 -17 197 -28 17 -50 20 -148 20 -125 0 -140 5
-140 50 0 46 14 50 168 50 l143 0 -3 38 -3 37 -135 2 c-74 1 -149 -3 -167 -8z"/>
<path d="M1460 618 c0 -127 13 -164 69 -193 38 -19 260 -22 279 -3 8 8 12 58
12 160 l0 148 -40 0 -40 0 0 -125 0 -125 -64 0 c-67 0 -115 12 -128 33 -4 7
-8 58 -8 115 l0 102 -40 0 -40 0 0 -112z"/>
<path d="M1890 582 c0 -102 4 -152 12 -160 27 -27 53 -11 128 75 l75 86 5 -74
c6 -87 12 -99 49 -99 55 0 155 104 221 231 22 42 40 80 40 83 0 3 -17 6 -39 6
-38 0 -39 -1 -91 -90 -29 -49 -64 -99 -76 -111 l-24 -22 0 99 c0 157 -23 162
-136 34 l-79 -89 -3 89 -3 90 -39 0 -40 0 0 -148z"/>
<path d="M2500 695 l0 -35 88 0 c55 0 92 -4 100 -12 7 -7 12 -41 12 -84 0 -85
1 -84 -109 -84 -94 0 -122 18 -85 54 11 12 36 16 90 16 l74 0 0 35 0 35 -85 0
c-95 0 -130 -12 -151 -51 -26 -51 -14 -106 30 -141 17 -14 42 -18 132 -18 97
0 115 3 137 20 43 34 60 138 36 223 -16 60 -54 77 -171 77 l-98 0 0 -35z"/>
<path d="M2888 714 c-41 -22 -48 -43 -48 -149 0 -93 1 -98 29 -126 28 -28 33
-29 120 -29 l91 0 0 35 0 35 -73 0 c-43 0 -78 5 -85 12 -16 16 -16 140 0 156
19 19 163 16 182 -4 37 -36 9 -54 -86 -54 l-78 0 0 -35 0 -35 91 0 c101 0 122
7 144 50 25 49 19 88 -19 126 l-34 34 -103 0 c-72 -1 -112 -5 -131 -16z"/>
</g>
</svg>
